<svg xmlns="http://www.w3.org/2000/svg" xmlns:xlink="http://www.w3.org/1999/xlink" width="500" zoomAndPan="magnify" viewBox="0 0 375 374.999991" height="500" preserveAspectRatio="xMidYMid meet" version="1.0"><defs><clipPath id="731946e2c0"><path d="M 58 45.496094 L 319.445312 45.496094 L 319.445312 329.746094 L 58 329.746094 Z M 58 45.496094 " clip-rule="nonzero"/></clipPath></defs><g clip-path="url(#731946e2c0)"><path fill="#430098" d="M 287.546875 45.496094 L 83.808594 45.496094 C 69.609375 45.496094 58.25 56.867188 58.25 71.078125 L 58.25 304.164062 C 58.25 318.375 69.609375 329.746094 83.808594 329.746094 L 287.546875 329.746094 C 301.742188 329.746094 313.101562 318.375 313.101562 304.164062 L 313.101562 71.078125 C 313.101562 56.867188 301.742188 45.496094 287.546875 45.496094 Z M 298.902344 304.164062 C 298.902344 310.558594 293.933594 315.535156 287.546875 315.535156 L 83.808594 315.535156 C 77.417969 315.535156 72.449219 310.558594 72.449219 304.164062 L 72.449219 71.078125 C 72.449219 64.683594 77.417969 59.710938 83.808594 59.710938 L 287.546875 59.710938 C 293.933594 59.710938 298.902344 64.683594 298.902344 71.078125 Z M 122.140625 287.109375 L 154.085938 258.683594 L 122.140625 230.257812 Z M 237.144531 171.988281 C 231.464844 166.304688 220.816406 159.195312 203.070312 159.195312 C 183.902344 159.195312 164.023438 164.171875 149.828125 169.144531 L 149.828125 88.132812 L 121.433594 88.132812 L 121.433594 211.074219 L 141.308594 201.835938 C 141.308594 201.835938 173.964844 186.910156 202.359375 186.910156 C 216.558594 186.910156 220.105469 194.726562 220.105469 201.835938 L 220.105469 287.109375 L 248.5 287.109375 L 248.5 201.835938 C 249.210938 199.703125 249.210938 184.070312 237.144531 171.988281 Z M 199.519531 134.324219 L 227.914062 134.324219 C 240.691406 119.402344 247.082031 104.480469 249.210938 88.132812 L 220.816406 88.132812 C 217.976562 104.480469 210.878906 119.402344 199.519531 134.324219 Z M 983.945312 201.125 L 983.945312 138.589844 L 1012.339844 138.589844 L 1012.339844 201.125 C 1012.339844 215.335938 1017.308594 222.441406 1028.667969 222.441406 C 1040.027344 222.441406 1044.285156 216.046875 1044.285156 201.125 L 1044.285156 138.589844 L 1071.972656 138.589844 L 1071.972656 201.835938 C 1071.972656 229.546875 1058.484375 245.894531 1027.957031 245.894531 C 997.433594 245.183594 983.945312 228.839844 983.945312 201.125 Z M 864.683594 138.589844 L 893.078125 138.589844 L 893.078125 176.960938 L 922.183594 138.589844 L 954.839844 138.589844 L 919.34375 179.804688 L 957.679688 243.761719 L 925.734375 243.761719 L 900.886719 201.835938 L 893.078125 211.074219 L 893.078125 243.761719 L 864.683594 243.761719 Z M 729.804688 190.464844 C 729.804688 152.089844 756.070312 135.746094 781.628906 135.746094 C 807.183594 135.746094 833.449219 152.089844 833.449219 190.464844 C 833.449219 228.839844 807.183594 245.183594 781.628906 245.183594 C 756.070312 245.183594 729.804688 229.546875 729.804688 190.464844 Z M 804.34375 190.464844 C 804.34375 171.277344 795.824219 159.195312 780.917969 159.195312 C 766.007812 159.195312 757.492188 171.277344 757.492188 190.464844 C 757.492188 209.652344 766.007812 222.441406 780.917969 222.441406 C 795.824219 222.441406 804.34375 210.363281 804.34375 190.464844 Z M 615.511719 138.589844 L 656.6875 138.589844 C 683.664062 138.589844 699.988281 147.828125 699.988281 172.699219 C 699.988281 189.042969 692.890625 198.992188 679.402344 203.253906 L 701.410156 243.761719 L 671.59375 243.761719 L 651.007812 207.519531 L 643.199219 207.519531 L 643.199219 243.761719 L 615.511719 243.761719 Z M 655.976562 185.488281 C 667.335938 185.488281 673.015625 181.9375 673.015625 173.410156 C 673.015625 164.882812 668.046875 161.328125 655.976562 161.328125 L 643.910156 161.328125 L 643.910156 185.488281 Z M 506.902344 138.589844 L 582.148438 138.589844 L 582.148438 162.039062 L 535.296875 162.039062 L 535.296875 179.09375 L 568.660156 179.09375 L 568.660156 201.125 L 535.296875 201.125 L 535.296875 220.3125 L 584.277344 220.3125 L 584.277344 243.050781 L 506.902344 243.050781 Z M 378.410156 138.589844 L 406.804688 138.589844 L 406.804688 177.671875 L 441.589844 177.671875 L 441.589844 138.589844 L 469.988281 138.589844 L 469.988281 243.761719 L 441.589844 243.761719 L 441.589844 201.125 L 406.804688 201.125 L 406.804688 243.761719 L 378.410156 243.761719 Z M 378.410156 138.589844 " fill-opacity="1" fill-rule="nonzero"/></g></svg>