<svg xmlns="http://www.w3.org/2000/svg" xmlns:xlink="http://www.w3.org/1999/xlink" width="500" zoomAndPan="magnify" viewBox="0 0 375 374.999991" height="500" preserveAspectRatio="xMidYMid meet" version="1.0"><defs><clipPath id="908c93792a"><path d="M 26.789062 124.695312 L 347 124.695312 L 347 249.945312 L 26.789062 249.945312 Z M 26.789062 124.695312 " clip-rule="nonzero"/></clipPath></defs><g clip-path="url(#908c93792a)"><path fill="#430098" d="M -0.675781 124.695312 L -90.785156 124.695312 C -97.066406 124.695312 -102.089844 129.703125 -102.089844 135.964844 L -102.089844 238.671875 C -102.089844 244.933594 -97.066406 249.945312 -90.785156 249.945312 L -0.675781 249.945312 C 5.601562 249.945312 10.625 244.933594 10.625 238.671875 L 10.625 135.964844 C 10.625 129.703125 5.601562 124.695312 -0.675781 124.695312 Z M 4.347656 238.671875 C 4.347656 241.488281 2.148438 243.679688 -0.675781 243.679688 L -90.785156 243.679688 C -93.613281 243.679688 -95.808594 241.488281 -95.808594 238.671875 L -95.808594 135.964844 C -95.808594 133.148438 -93.613281 130.957031 -90.785156 130.957031 L -0.675781 130.957031 C 2.148438 130.957031 4.347656 133.148438 4.347656 135.964844 Z M -73.832031 231.15625 L -59.703125 218.632812 L -73.832031 206.105469 Z M -22.96875 180.429688 C -25.480469 177.925781 -30.191406 174.792969 -38.039062 174.792969 C -46.515625 174.792969 -55.308594 176.984375 -61.585938 179.175781 L -61.585938 143.480469 L -74.144531 143.480469 L -74.144531 197.652344 L -65.355469 193.582031 C -65.355469 193.582031 -50.910156 187.003906 -38.351562 187.003906 C -32.074219 187.003906 -30.503906 190.449219 -30.503906 193.582031 L -30.503906 231.15625 L -17.945312 231.15625 L -17.945312 193.582031 C -17.632812 192.640625 -17.632812 185.753906 -22.96875 180.429688 Z M -39.609375 163.835938 L -27.050781 163.835938 C -21.398438 157.257812 -18.574219 150.683594 -17.632812 143.480469 L -30.191406 143.480469 C -31.445312 150.683594 -34.585938 157.257812 -39.609375 163.835938 Z M 307.328125 193.269531 L 307.328125 165.714844 L 319.886719 165.714844 L 319.886719 193.269531 C 319.886719 199.53125 322.085938 202.660156 327.109375 202.660156 C 332.132812 202.660156 334.015625 199.84375 334.015625 193.269531 L 334.015625 165.714844 L 346.261719 165.714844 L 346.261719 193.582031 C 346.261719 205.792969 340.296875 212.996094 326.796875 212.996094 C 313.292969 212.683594 307.328125 205.480469 307.328125 193.269531 Z M 254.582031 165.714844 L 267.140625 165.714844 L 267.140625 182.621094 L 280.015625 165.714844 L 294.457031 165.714844 L 278.757812 183.875 L 295.710938 212.054688 L 281.582031 212.054688 L 270.59375 193.582031 L 267.140625 197.652344 L 267.140625 212.054688 L 254.582031 212.054688 Z M 194.925781 188.570312 C 194.925781 171.664062 206.542969 164.460938 217.847656 164.460938 C 229.152344 164.460938 240.765625 171.664062 240.765625 188.570312 C 240.765625 205.480469 229.152344 212.683594 217.847656 212.683594 C 206.542969 212.683594 194.925781 205.792969 194.925781 188.570312 Z M 227.894531 188.570312 C 227.894531 180.117188 224.128906 174.792969 217.535156 174.792969 C 210.941406 174.792969 207.171875 180.117188 207.171875 188.570312 C 207.171875 197.027344 210.941406 202.660156 217.535156 202.660156 C 224.125 202.660156 227.894531 197.339844 227.894531 188.570312 Z M 144.378906 165.714844 L 162.589844 165.714844 C 174.519531 165.714844 181.742188 169.785156 181.742188 180.742188 C 181.742188 187.945312 178.601562 192.328125 172.636719 194.207031 L 182.367188 212.054688 L 169.183594 212.054688 L 160.078125 196.085938 L 156.625 196.085938 L 156.625 212.054688 L 144.378906 212.054688 Z M 162.273438 186.378906 C 167.296875 186.378906 169.808594 184.8125 169.808594 181.054688 C 169.808594 177.296875 167.613281 175.734375 162.273438 175.734375 L 156.9375 175.734375 L 156.9375 186.378906 Z M 96.339844 165.714844 L 129.621094 165.714844 L 129.621094 176.046875 L 108.898438 176.046875 L 108.898438 183.5625 L 123.65625 183.5625 L 123.65625 193.269531 L 108.898438 193.269531 L 108.898438 201.722656 L 130.5625 201.722656 L 130.5625 211.742188 L 96.339844 211.742188 Z M 39.511719 165.714844 L 52.070312 165.714844 L 52.070312 182.933594 L 67.457031 182.933594 L 67.457031 165.714844 L 80.015625 165.714844 L 80.015625 212.054688 L 67.457031 212.054688 L 67.457031 193.269531 L 52.070312 193.269531 L 52.070312 212.054688 L 39.511719 212.054688 Z M 39.511719 165.714844 " fill-opacity="1" fill-rule="nonzero"/></g></svg>