<svg xmlns="http://www.w3.org/2000/svg" xmlns:xlink="http://www.w3.org/1999/xlink" width="500" zoomAndPan="magnify" viewBox="0 0 375 374.999991" height="500" preserveAspectRatio="xMidYMid meet" version="1.0"><defs><g/></defs><g fill="#ffffff" fill-opacity="1"><g transform="translate(15.373053, 210.834742)"><g><path d="M 4.5625 -62.734375 L 27 -62.734375 C 33.03125 -62.734375 37.945312 -61.125 41.75 -57.90625 C 45.550781 -54.6875 47.453125 -50.085938 47.453125 -44.109375 C 47.453125 -39.492188 46.296875 -35.625 43.984375 -32.5 C 41.679688 -29.382812 38.550781 -27.195312 34.59375 -25.9375 L 56.203125 0 L 38.03125 0 L 18.859375 -24.796875 L 18.859375 0 L 4.5625 0 Z M 18.859375 -34.90625 L 20.53125 -34.90625 C 21.851562 -34.90625 22.96875 -34.929688 23.875 -34.984375 C 24.789062 -35.035156 25.832031 -35.210938 27 -35.515625 C 28.164062 -35.816406 29.101562 -36.242188 29.8125 -36.796875 C 30.519531 -37.359375 31.125 -38.171875 31.625 -39.234375 C 32.132812 -40.304688 32.390625 -41.601562 32.390625 -43.125 C 32.390625 -44.644531 32.132812 -45.9375 31.625 -47 C 31.125 -48.0625 30.519531 -48.867188 29.8125 -49.421875 C 29.101562 -49.984375 28.164062 -50.414062 27 -50.71875 C 25.832031 -51.019531 24.789062 -51.195312 23.875 -51.25 C 22.96875 -51.300781 21.851562 -51.328125 20.53125 -51.328125 L 18.859375 -51.328125 Z M 18.859375 -34.90625 "/></g></g></g><g fill="#ffffff" fill-opacity="1"><g transform="translate(63.887845, 210.834742)"><g><path d="M 36.421875 -62.734375 L 61.75 0 L 46.390625 0 L 41.75 -12.546875 L 17.875 -12.546875 L 13.234375 0 L -2.125 0 L 23.1875 -62.734375 Z M 36.875 -25.09375 L 29.890625 -43.34375 L 29.734375 -43.34375 L 22.734375 -25.09375 Z M 36.875 -25.09375 "/></g></g></g><g fill="#ffffff" fill-opacity="1"><g transform="translate(117.573558, 210.834742)"><g><path d="M 18.859375 -62.734375 L 18.859375 0 L 4.5625 0 L 4.5625 -62.734375 Z M 18.859375 -62.734375 "/></g></g></g><g fill="#ffffff" fill-opacity="1"><g transform="translate(135.062819, 210.834742)"><g><path d="M 18.859375 -62.734375 L 18.859375 -12.546875 L 40.453125 -12.546875 L 40.453125 0 L 4.5625 0 L 4.5625 -62.734375 Z M 18.859375 -62.734375 "/></g></g></g><g fill="#ffffff" fill-opacity="1"><g transform="translate(172.09512, 210.834742)"><g><path d="M 52.703125 0 L 42.65625 -35.203125 L 32.625 0 L 16.734375 0 L -1.140625 -62.734375 L 14.75 -62.734375 L 25.46875 -19.703125 L 25.859375 -19.703125 L 37.265625 -62.734375 L 48.0625 -62.734375 L 59.46875 -19.703125 L 59.84375 -19.703125 L 70.578125 -62.734375 L 86.390625 -62.734375 L 68.515625 0 Z M 52.703125 0 "/></g></g></g><g fill="#ffffff" fill-opacity="1"><g transform="translate(251.407294, 210.834742)"><g><path d="M 36.421875 -62.734375 L 61.75 0 L 46.390625 0 L 41.75 -12.546875 L 17.875 -12.546875 L 13.234375 0 L -2.125 0 L 23.1875 -62.734375 Z M 36.875 -25.09375 L 29.890625 -43.34375 L 29.734375 -43.34375 L 22.734375 -25.09375 Z M 36.875 -25.09375 "/></g></g></g><g fill="#ffffff" fill-opacity="1"><g transform="translate(305.093013, 210.834742)"><g><path d="M -2.28125 -62.734375 L 14.90625 -62.734375 L 27.984375 -42.65625 L 41.0625 -62.734375 L 58.25 -62.734375 L 35.140625 -28.140625 L 35.140625 0 L 20.84375 0 L 20.84375 -28.140625 Z M -2.28125 -62.734375 "/></g></g></g></svg>