<svg xmlns="http://www.w3.org/2000/svg" xmlns:xlink="http://www.w3.org/1999/xlink" width="500" zoomAndPan="magnify" viewBox="0 0 375 374.999991" height="500" preserveAspectRatio="xMidYMid meet" version="1.0"><defs><g/></defs><g fill="#ffffff" fill-opacity="1"><g transform="translate(16.113718, 240.535561)"><g><path d="M 34.671875 0 L -3.046875 -89.96875 L 20.0625 -89.96875 L 42.75 -30.859375 L 65.421875 -89.96875 L 88.546875 -89.96875 L 50.8125 0 Z M 34.671875 0 "/></g></g></g><g fill="#ffffff" fill-opacity="1"><g transform="translate(93.088906, 240.535561)"><g><path d="M 63.140625 -25.296875 L 22.578125 -25.296875 C 22.578125 -21.367188 23.847656 -18.457031 26.390625 -16.5625 C 28.929688 -14.675781 31.691406 -13.734375 34.671875 -13.734375 C 37.796875 -13.734375 40.265625 -14.148438 42.078125 -14.984375 C 43.898438 -15.828125 45.976562 -17.484375 48.3125 -19.953125 L 62.265625 -12.984375 C 56.453125 -3.234375 46.785156 1.640625 33.265625 1.640625 C 24.828125 1.640625 17.59375 -1.25 11.5625 -7.03125 C 5.53125 -12.8125 2.515625 -19.769531 2.515625 -27.90625 C 2.515625 -36.050781 5.53125 -43.03125 11.5625 -48.84375 C 17.59375 -54.664062 24.828125 -57.578125 33.265625 -57.578125 C 42.128906 -57.578125 49.34375 -55.015625 54.90625 -49.890625 C 60.46875 -44.765625 63.25 -37.441406 63.25 -27.921875 C 63.25 -26.609375 63.210938 -25.734375 63.140625 -25.296875 Z M 23.125 -35.984375 L 44.375 -35.984375 C 43.945312 -38.890625 42.804688 -41.125 40.953125 -42.6875 C 39.097656 -44.25 36.710938 -45.03125 33.796875 -45.03125 C 30.597656 -45.03125 28.054688 -44.191406 26.171875 -42.515625 C 24.285156 -40.847656 23.269531 -38.671875 23.125 -35.984375 Z M 23.125 -35.984375 "/></g></g></g><g fill="#ffffff" fill-opacity="1"><g transform="translate(150.329434, 240.535561)"><g><path d="M 6.546875 0 L 6.546875 -55.9375 L 25.84375 -55.9375 L 25.84375 -47.875 L 26.0625 -47.875 C 26.207031 -48.164062 26.441406 -48.523438 26.765625 -48.953125 C 27.097656 -49.390625 27.804688 -50.15625 28.890625 -51.25 C 29.984375 -52.34375 31.144531 -53.320312 32.375 -54.1875 C 33.613281 -55.0625 35.210938 -55.84375 37.171875 -56.53125 C 39.140625 -57.226562 41.144531 -57.578125 43.1875 -57.578125 C 45.289062 -57.578125 47.359375 -57.285156 49.390625 -56.703125 C 51.429688 -56.117188 52.925781 -55.535156 53.875 -54.953125 L 55.390625 -54.09375 L 47.328125 -37.734375 C 44.929688 -39.765625 41.585938 -40.78125 37.296875 -40.78125 C 34.960938 -40.78125 32.957031 -40.269531 31.28125 -39.25 C 29.613281 -38.238281 28.4375 -37.003906 27.75 -35.546875 C 27.0625 -34.097656 26.570312 -32.863281 26.28125 -31.84375 C 25.988281 -30.820312 25.84375 -30.019531 25.84375 -29.4375 L 25.84375 0 Z M 6.546875 0 "/></g></g></g><g fill="#ffffff" fill-opacity="1"><g transform="translate(196.121682, 240.535561)"><g><path d="M 36.3125 -41.765625 C 32.675781 -41.765625 29.550781 -40.421875 26.9375 -37.734375 C 24.320312 -35.046875 23.015625 -31.8125 23.015625 -28.03125 C 23.015625 -24.175781 24.320312 -20.898438 26.9375 -18.203125 C 29.550781 -15.515625 32.675781 -14.171875 36.3125 -14.171875 C 38.0625 -14.171875 39.71875 -14.390625 41.28125 -14.828125 C 42.84375 -15.265625 43.984375 -15.703125 44.703125 -16.140625 L 45.6875 -16.796875 L 52.234375 -3.375 C 51.722656 -3.007812 51.015625 -2.554688 50.109375 -2.015625 C 49.203125 -1.472656 47.128906 -0.726562 43.890625 0.21875 C 40.648438 1.164062 37.179688 1.640625 33.484375 1.640625 C 25.265625 1.640625 18.046875 -1.25 11.828125 -7.03125 C 5.617188 -12.8125 2.515625 -19.738281 2.515625 -27.8125 C 2.515625 -35.945312 5.617188 -42.941406 11.828125 -48.796875 C 18.046875 -54.648438 25.265625 -57.578125 33.484375 -57.578125 C 37.179688 -57.578125 40.59375 -57.140625 43.71875 -56.265625 C 46.851562 -55.390625 49.070312 -54.519531 50.375 -53.65625 L 52.234375 -52.34375 L 45.6875 -39.140625 C 43.289062 -40.890625 40.164062 -41.765625 36.3125 -41.765625 Z M 36.3125 -41.765625 "/></g></g></g><g fill="#ffffff" fill-opacity="1"><g transform="translate(241.150713, 240.535561)"><g><path d="M 63.140625 -25.296875 L 22.578125 -25.296875 C 22.578125 -21.367188 23.847656 -18.457031 26.390625 -16.5625 C 28.929688 -14.675781 31.691406 -13.734375 34.671875 -13.734375 C 37.796875 -13.734375 40.265625 -14.148438 42.078125 -14.984375 C 43.898438 -15.828125 45.976562 -17.484375 48.3125 -19.953125 L 62.265625 -12.984375 C 56.453125 -3.234375 46.785156 1.640625 33.265625 1.640625 C 24.828125 1.640625 17.59375 -1.25 11.5625 -7.03125 C 5.53125 -12.8125 2.515625 -19.769531 2.515625 -27.90625 C 2.515625 -36.050781 5.53125 -43.03125 11.5625 -48.84375 C 17.59375 -54.664062 24.828125 -57.578125 33.265625 -57.578125 C 42.128906 -57.578125 49.34375 -55.015625 54.90625 -49.890625 C 60.46875 -44.765625 63.25 -37.441406 63.25 -27.921875 C 63.25 -26.609375 63.210938 -25.734375 63.140625 -25.296875 Z M 23.125 -35.984375 L 44.375 -35.984375 C 43.945312 -38.890625 42.804688 -41.125 40.953125 -42.6875 C 39.097656 -44.25 36.710938 -45.03125 33.796875 -45.03125 C 30.597656 -45.03125 28.054688 -44.191406 26.171875 -42.515625 C 24.285156 -40.847656 23.269531 -38.671875 23.125 -35.984375 Z M 23.125 -35.984375 "/></g></g></g><g fill="#ffffff" fill-opacity="1"><g transform="translate(298.391241, 240.535561)"><g><path d="M 6.546875 0 L 6.546875 -93.78125 L 25.84375 -93.78125 L 25.84375 0 Z M 6.546875 0 "/></g></g></g><g fill="#ffffff" fill-opacity="1"><g transform="translate(322.268216, 240.535561)"><g><path d="M 18.96875 -23.34375 C 22.457031 -23.34375 25.421875 -22.125 27.859375 -19.6875 C 30.296875 -17.25 31.515625 -14.285156 31.515625 -10.796875 C 31.515625 -7.378906 30.296875 -4.453125 27.859375 -2.015625 C 25.421875 0.421875 22.457031 1.640625 18.96875 1.640625 C 15.550781 1.640625 12.625 0.421875 10.1875 -2.015625 C 7.757812 -4.453125 6.546875 -7.378906 6.546875 -10.796875 C 6.546875 -14.285156 7.757812 -17.25 10.1875 -19.6875 C 12.625 -22.125 15.550781 -23.34375 18.96875 -23.34375 Z M 18.96875 -23.34375 "/></g></g></g></svg>